# xmcd
#
# Track frame offsets:
#	150
#	22721
#	39313
#	57681
#	80007
#	96127
#	116492
#	136297
#	152435
#	166639
#	190077
#	206254
#	226823
#	244586
#	262452
#	280612
#	297929
#
# Disc length: 4277 seconds
#
# Revision: 1
# Processed by: cddbd v1.5.1PL0 Copyright (c) Steve Scherf et al.
# Submitted via: EasyCDDAExtractor 7.1.0.1
#
DISCID=dc10b311
DTITLE=Luis Silva - Mis Mejores Canciones
DYEAR=2003
DGENRE=Folklore
TTITLE0=Romance Quinceañero
TTITLE1=Venezuela
TTITLE2=Quisiera Ser
TTITLE3=Enamorado de Ti
TTITLE4=Ella o El
TTITLE5=Las Diosas y el Pecador
TTITLE6=Unidos
TTITLE7=Como no Voy a Decirlo
TTITLE8=Piel Canela
TTITLE9=Llaneririmas
TTITLE10=Quiero Enamorarme de Ti
TTITLE11=Enfurecida
TTITLE12=Enredadera
TTITLE13=Como te Quiero
TTITLE14=Es que te Quiero
TTITLE15=A Vel
TTITLE16=De Vuelva a mis Raices
EXTD=
EXTT0=
EXTT1=
EXTT2=
EXTT3=
EXTT4=
EXTT5=
EXTT6=
EXTT7=
EXTT8=
EXTT9=
EXTT10=
EXTT11=
EXTT12=
EXTT13=
EXTT14=
EXTT15=
EXTT16=
PLAYORDER=
